<?xml version="1.0" encoding="UTF-8" standalone="no"?>
<!-- Created with Inkscape (http://www.inkscape.org/) -->

<svg
   xmlns:dc="http://purl.org/dc/elements/1.1/"
   xmlns:cc="http://creativecommons.org/ns#"
   xmlns:rdf="http://www.w3.org/1999/02/22-rdf-syntax-ns#"
   xmlns:svg="http://www.w3.org/2000/svg"
   xmlns="http://www.w3.org/2000/svg"
   xmlns:xlink="http://www.w3.org/1999/xlink"
   xmlns:sodipodi="http://sodipodi.sourceforge.net/DTD/sodipodi-0.dtd"
   xmlns:inkscape="http://www.inkscape.org/namespaces/inkscape"
   width="16px"
   height="16px"
   id="svg4470"
   version="1.1"
   inkscape:version="0.48.3.1 r9886"
   inkscape:export-filename="/home/garrett/Pictures/snap.png"
   inkscape:export-xdpi="90"
   inkscape:export-ydpi="90"
   sodipodi:docname="snap.svg">
  <defs
     id="defs4472">
    <linearGradient
       id="linearGradient4439">
      <stop
         style="stop-color:#000000;stop-opacity:0.8"
         offset="0"
         id="stop4441" />
      <stop
         style="stop-color:#000000;stop-opacity:0.6"
         offset="1"
         id="stop4443" />
    </linearGradient>
    <linearGradient
       inkscape:collect="always"
       xlink:href="#linearGradient4439"
       id="linearGradient5241"
       gradientUnits="userSpaceOnUse"
       gradientTransform="matrix(0.8538648,0,0,0.82281516,1.245283,1.5258664)"
       x1="7.8194304"
       y1="2.980577"
       x2="7.8194304"
       y2="12.762256" />
    <linearGradient
       inkscape:collect="always"
       xlink:href="#linearGradient4439"
       id="linearGradient5244"
       gradientUnits="userSpaceOnUse"
       x1="6.0305896"
       y1="-5.428863"
       x2="6.0305896"
       y2="13.967193" />
    <linearGradient
       inkscape:collect="always"
       xlink:href="#linearGradient4439"
       id="linearGradient5267"
       gradientUnits="userSpaceOnUse"
       gradientTransform="matrix(0.9961756,0,0,1.005663,0.1194968,0.19828116)"
       x1="7.8194304"
       y1="2.980577"
       x2="7.8194304"
       y2="12.762256" />
    <linearGradient
       inkscape:collect="always"
       xlink:href="#linearGradient4439"
       id="linearGradient5280"
       gradientUnits="userSpaceOnUse"
       x1="6.0305896"
       y1="-5.428863"
       x2="6.0305896"
       y2="13.967193" />
  </defs>
  <sodipodi:namedview
     id="base"
     pagecolor="#ffffff"
     bordercolor="#666666"
     borderopacity="1.0"
     inkscape:pageopacity="0.0"
     inkscape:pageshadow="2"
     inkscape:zoom="22.627417"
     inkscape:cx="15.774939"
     inkscape:cy="4.2554489"
     inkscape:current-layer="layer1"
     showgrid="true"
     inkscape:grid-bbox="true"
     inkscape:document-units="px"
     inkscape:window-width="1920"
     inkscape:window-height="1021"
     inkscape:window-x="1280"
     inkscape:window-y="27"
     inkscape:window-maximized="1" />
  <metadata
     id="metadata4475">
    <rdf:RDF>
      <cc:Work
         rdf:about="">
        <dc:format>image/svg+xml</dc:format>
        <dc:type
           rdf:resource="http://purl.org/dc/dcmitype/StillImage" />
        <dc:title></dc:title>
      </cc:Work>
    </rdf:RDF>
  </metadata>
  <g
     id="layer1"
     inkscape:label="Layer 1"
     inkscape:groupmode="layer">
    <path
       style="fill:#ffffff;fill-opacity:1;stroke:none;opacity:0.8"
       d="M 3.34375 2 L 3.34375 3.21875 L 1 3.21875 L 1 13 L 2.15625 13 L 10.34375 13 L 15 13 L 15 3.21875 L 10.34375 3.21875 L 10.34375 2 L 3.34375 2 z M 4 3 L 10 3 L 10 4 L 14 4 L 14 12 L 10 12 L 3 12 L 2 12 L 2 4 L 4 4 L 4 3 z M 7 5.5 C 5.6192881 5.5 4.5 6.6192881 4.5 8 C 4.5 9.3807119 5.6192881 10.5 7 10.5 C 8.3807119 10.5 9.5 9.3807119 9.5 8 C 9.5 6.6192881 8.3807119 5.5 7 5.5 z "
       id="path5265" />
    <path
       style="fill:#ffffff;fill-opacity:1;stroke:none"
       d="M 7 5.5 C 5.6192881 5.5 4.5 6.6192881 4.5 8 C 4.5 9.3807119 5.6192881 10.5 7 10.5 C 8.3807119 10.5 9.5 9.3807119 9.5 8 C 9.5 6.6192881 8.3807119 5.5 7 5.5 z M 7 6.5 C 7.8284271 6.5 8.5 7.1715729 8.5 8 C 8.5 8.8284271 7.8284271 9.5 7 9.5 C 6.1715729 9.5 5.5 8.8284271 5.5 8 C 5.5 7.1715729 6.1715729 6.5 7 6.5 z "
       id="path5272" />
    <path
       style="fill:url(#linearGradient5241);fill-opacity:1;stroke:none"
       d="m 4,3 0,1 -2,0 0,8 1,0 7,0 4,0 0,-8 -4,0 0,-1 z M 7,5.5 C 8.3807119,5.5 9.5,6.6192881 9.5,8 9.5,9.3807119 8.3807119,10.5 7,10.5 5.6192881,10.5 4.5,9.3807119 4.5,8 4.5,6.6192881 5.6192881,5.5 7,5.5 z"
       id="rect5224"
       inkscape:connector-curvature="0"
       sodipodi:nodetypes="cccccccccccsssss" />
    <path
       sodipodi:type="arc"
       style="fill:url(#linearGradient5244);fill-opacity:1;stroke:none"
       id="path5154"
       sodipodi:cx="5.2482672"
       sodipodi:cy="5.2106433"
       sodipodi:rx="3.7616336"
       sodipodi:ry="3.7616336"
       d="m 9.0099008,5.2106433 a 3.7616336,3.7616336 0 1 1 -7.5232673,0 3.7616336,3.7616336 0 1 1 7.5232673,0 z"
       transform="matrix(0.39876292,0,0,0.39876292,4.9071857,5.9221887)" />
  </g>
</svg>
